<svg id="calendar" xmlns="http://www.w3.org/2000/svg" width="511.634" height="511.634" viewBox="0 0 511.634 511.634"><path d="M482.513 83.942c-7.225-7.233-15.797-10.85-25.694-10.85h-36.544v-27.41c0-12.56-4.477-23.315-13.422-32.26C397.904 4.474 387.154 0 374.59 0h-18.267c-12.565 0-23.318 4.475-32.264 13.422-8.95 8.945-13.425 19.7-13.425 32.26v27.41h-109.63v-27.41c0-12.56-4.475-23.314-13.422-32.26C178.64 4.475 167.883 0 155.32 0h-18.27c-12.562 0-23.317 4.475-32.264 13.422-8.945 8.945-13.42 19.7-13.42 32.26v27.41H54.822c-9.9 0-18.464 3.618-25.697 10.85-7.233 7.233-10.85 15.8-10.85 25.698v365.453c0 9.89 3.617 18.456 10.85 25.693 7.232 7.23 15.796 10.85 25.697 10.85h401.99c9.896 0 18.47-3.618 25.693-10.85 7.234-7.234 10.852-15.804 10.852-25.693V109.64c0-9.9-3.615-18.465-10.845-25.698zM347.187 45.686c0-2.667.85-4.858 2.56-6.567 1.71-1.714 3.9-2.57 6.57-2.57h18.268c2.67 0 4.853.853 6.57 2.57 1.712 1.71 2.567 3.9 2.567 6.564v82.224c0 2.665-.855 4.852-2.567 6.566-1.718 1.71-3.9 2.568-6.57 2.568h-18.268c-2.67 0-4.86-.855-6.57-2.568-1.71-1.715-2.56-3.9-2.56-6.567V45.685zm-219.272 0c0-2.667.855-4.858 2.568-6.567 1.714-1.714 3.9-2.57 6.567-2.57h18.27c2.668 0 4.86.853 6.568 2.57 1.71 1.71 2.57 3.9 2.57 6.564v82.224c0 2.665-.855 4.855-2.57 6.566-1.713 1.71-3.9 2.568-6.567 2.568h-18.27c-2.664 0-4.854-.855-6.565-2.568-1.71-1.715-2.568-3.9-2.568-6.567V45.685zm328.897 429.402H54.822v-292.36h401.99v292.36z"/></svg>