<svg id="chain" xmlns="http://www.w3.org/2000/svg" viewBox="0 0 54.971 54.971"><path d="M51.173 3.8c-5.068-5.067-13.315-5.065-18.384 0l-9.2 9.193c-.78.78-.78 2.047 0 2.828.78.79 2.046.79 2.83 0l9.19-9.19c1.69-1.69 3.95-2.62 6.363-2.62 2.412 0 4.672.93 6.363 2.628S50.96 10.588 50.96 13c0 2.41-.932 4.67-2.623 6.362L36.324 31.38c-3.51 3.507-9.217 3.507-12.727 0-.78-.782-2.047-.782-2.828 0s-.78 2.047 0 2.827c2.53 2.534 5.86 3.8 9.19 3.8s6.66-1.266 9.19-3.8l12.02-12.02c2.45-2.447 3.796-5.712 3.796-9.193 0-3.482-1.35-6.746-3.798-9.193z"/><path d="M27.132 40.57l-7.778 7.778c-1.69 1.69-3.95 2.623-6.364 2.623-2.412 0-4.673-.93-6.364-2.62-3.51-3.51-3.51-9.22 0-12.73L17.94 24.31c1.69-1.69 3.95-2.622 6.364-2.622 2.412 0 4.672.932 6.363 2.622.78.78 2.047.78 2.828 0s.78-2.047 0-2.828c-5.067-5.068-13.314-5.07-18.384 0L3.8 32.792C1.35 35.24.003 38.502.003 41.985c0 3.48 1.348 6.745 3.795 9.19 2.446 2.448 5.71 3.796 9.19 3.796 3.482 0 6.747-1.34 9.193-3.79l7.78-7.78c.78-.78.78-2.042 0-2.83s-2.04-.78-2.82 0z"/></svg>