<svg xmlns="http://www.w3.org/2000/svg" viewBox="0 0 512 512" id="delivery"><path d="M476.158 231.363l-13.26-53.035c3.626-.77 6.346-3.986 6.346-7.84v-8.55c0-18.566-15.105-33.67-33.67-33.67h-60.392V110.63c0-9.136-7.432-16.568-16.568-16.568H50.772c-9.136 0-16.568 7.432-16.568 16.568V256c0 4.427 3.59 8.017 8.017 8.017 4.43 0 8.02-3.59 8.02-8.017V110.63c0-.295.24-.534.54-.534h307.84c.3 0 .54.24.54.534v145.372c0 4.427 3.59 8.017 8.02 8.017s8.018-3.59 8.018-8.02v-9.09h94.61c11.637 0 21.518 7.64 24.91 18.17h-24.93c-4.426 0-8.016 3.59-8.016 8.01v17.11c0 13.85 11.268 25.12 25.12 25.12h9.085v35.27H475.01c-6.886-19.886-25.787-34.208-47.982-34.208s-41.096 14.322-47.98 34.205h-3.86V290.2c0-4.428-3.59-8.018-8.018-8.018-4.427 0-8.017 3.59-8.017 8.017v60.39H192.82c-6.888-19.89-25.79-34.21-47.984-34.21s-41.096 14.32-47.982 34.2h-46.08c-.296 0-.535-.24-.535-.54v-17.63h34.74c4.42 0 8.01-3.59 8.01-8.017s-3.59-8.017-8.02-8.017H8.01c-4.42.013-8.01 3.603-8.01 8.03s3.59 8.016 8.017 8.016h26.188v17.637c0 9.14 7.432 16.57 16.568 16.57h43.304c-.002.18-.014.357-.014.536 0 27.996 22.777 50.772 50.772 50.772s50.772-22.78 50.772-50.775c0-.18-.012-.356-.014-.534h180.67c-.002.18-.014.36-.014.54 0 28 22.77 50.77 50.77 50.77 27.99 0 50.77-22.77 50.77-50.77 0-.18-.01-.353-.02-.53h26.2c4.42 0 8.01-3.59 8.01-8.02V273.1c0-21.112-15.577-38.653-35.84-41.74zM375.182 144.3h60.392c9.725 0 17.637 7.913 17.637 17.638v.534h-78.02v-18.17zm0 86.58v-52.375h71.235l13.094 52.376h-84.32zM144.835 401.905c-19.155 0-34.74-15.583-34.74-34.74s15.585-34.738 34.74-34.738 34.74 15.583 34.74 34.74-15.585 34.738-34.74 34.738zm282.188 0c-19.155 0-34.74-15.583-34.74-34.74s15.585-34.738 34.74-34.738 34.74 15.583 34.74 34.74-15.585 34.738-34.74 34.738zm68.944-102.614h-9.086c-5.01 0-9.08-4.07-9.08-9.08v-9.08h18.17v18.17z"/><path d="M144.835 350.597c-9.136 0-16.568 7.432-16.568 16.568 0 9.136 7.432 16.568 16.568 16.568 9.136 0 16.568-7.432 16.568-16.568 0-9.136-7.432-16.568-16.568-16.568zm282.188 0c-9.136 0-16.568 7.432-16.568 16.568 0 9.136 7.432 16.568 16.568 16.568 9.136 0 16.568-7.432 16.568-16.568 0-9.136-7.43-16.568-16.56-16.568zm-94.063-34.204H213.244c-4.427 0-8.017 3.59-8.017 8.017s3.59 8.017 8.017 8.017H332.96c4.427 0 8.017-3.59 8.017-8.017s-3.59-8.017-8.017-8.017zm-205.227-34.205H25.12c-4.428 0-8.018 3.59-8.018 8.017s3.59 8.017 8.017 8.017h102.61c4.42 0 8.01-3.59 8.01-8.017s-3.59-8.017-8.02-8.017zM278.77 173.37c-3.13-3.13-8.206-3.13-11.336 0l-71.292 71.292-37.087-37.087c-3.13-3.13-8.207-3.13-11.337 0-3.13 3.13-3.13 8.206 0 11.337l42.756 42.756c1.565 1.566 3.617 2.348 5.668 2.348s4.104-.782 5.668-2.348l76.96-76.96c3.13-3.132 3.13-8.207 0-11.338z"/></svg>