<?xml version="1.0" encoding="UTF-8" ?>
<!DOCTYPE svg PUBLIC "-//W3C//DTD SVG 1.1//EN" "http://www.w3.org/Graphics/SVG/1.1/DTD/svg11.dtd">
<svg id="diameter" width="250pt" height="250pt" viewBox="0 0 250 250" version="1.1" xmlns="http://www.w3.org/2000/svg">
<g id="#408597fb">
<path fill="#408597" opacity="1.00" d=" M 116.39 9.59 C 141.83 8.05 167.69 15.69 188.25 30.73 C 206.67 44.12 220.74 63.34 227.96 84.93 C 234.30 103.47 235.44 123.74 231.47 142.91 C 226.26 168.23 211.90 191.59 191.47 207.47 C 163.43 229.90 124.14 237.30 89.94 226.27 C 66.65 219.11 45.84 204.04 31.99 183.98 C 16.79 162.39 9.66 135.23 12.50 108.97 C 15.20 82.55 27.70 57.23 47.21 39.19 C 65.93 21.73 90.83 11.03 116.39 9.59 M 62.36 36.31 C 44.04 49.34 30.34 68.60 23.84 90.11 C 16.52 113.71 18.14 139.94 28.34 162.44 L 27.85 162.88 L 28.49 162.79 C 34.06 175.23 42.11 186.59 52.11 195.86 C 69.61 212.32 93.03 222.32 117.01 223.62 C 139.01 224.95 161.35 218.88 179.71 206.72 C 200.78 193.08 216.37 171.36 222.76 147.11 C 228.95 124.53 226.96 99.90 217.50 78.51 L 218.11 77.98 L 217.29 78.08 C 211.01 63.94 201.51 51.27 189.70 41.28 C 170.50 24.96 145.16 16.06 119.97 16.82 C 99.40 17.35 79.03 24.22 62.36 36.31 Z" />
</g>
<g id="#fafafafa">
<path fill="#fafafa" opacity="0.98" d=" M 62.36 36.31 C 79.03 24.22 99.40 17.35 119.97 16.82 C 145.16 16.06 170.50 24.96 189.70 41.28 C 201.51 51.27 211.01 63.94 217.29 78.08 C 203.73 79.98 190.16 81.78 176.65 83.91 C 180.76 85.43 184.86 86.99 188.96 88.57 C 144.29 108.27 99.73 128.22 55.19 148.21 C 56.80 144.11 58.38 139.99 59.91 135.85 C 49.41 144.74 38.76 153.46 28.34 162.44 C 18.14 139.94 16.52 113.71 23.84 90.11 C 30.34 68.60 44.04 49.34 62.36 36.31 Z" />
<path fill="#fafafa" opacity="0.98" d=" M 185.98 104.96 C 196.48 96.13 207.06 87.40 217.50 78.51 C 226.96 99.90 228.95 124.53 222.76 147.11 C 216.37 171.36 200.78 193.08 179.71 206.72 C 161.35 218.88 139.01 224.95 117.01 223.62 C 93.03 222.32 69.61 212.32 52.11 195.86 C 42.11 186.59 34.06 175.23 28.49 162.79 C 42.08 160.87 55.66 158.96 69.24 156.96 C 65.17 155.30 61.10 153.68 56.95 152.26 C 101.58 132.42 146.21 112.56 190.76 92.54 C 189.12 96.66 187.58 100.82 185.98 104.96 Z" />
</g>
<g id="#030c0cff">
<path fill="#030c0c" opacity="1.00" d=" M 176.65 83.91 C 190.16 81.78 203.73 79.98 217.29 78.08 L 218.11 77.98 L 217.50 78.51 C 207.06 87.40 196.48 96.13 185.98 104.96 C 187.58 100.82 189.12 96.66 190.76 92.54 C 146.21 112.56 101.58 132.42 56.95 152.26 C 61.10 153.68 65.17 155.30 69.24 156.96 C 55.66 158.96 42.08 160.87 28.49 162.79 L 27.85 162.88 L 28.34 162.44 C 38.76 153.46 49.41 144.74 59.91 135.85 C 58.38 139.99 56.80 144.11 55.19 148.21 C 99.73 128.22 144.29 108.27 188.96 88.57 C 184.86 86.99 180.76 85.43 176.65 83.91 Z" />
</g>
</svg>
