<svg xmlns="http://www.w3.org/2000/svg" viewBox="0 0 100.5 100.5" id= "guarantee"><path d="M63.43 39.02L46.55 57.93l-8.565-8.566c-.586-.586-1.535-.586-2.12 0s-.587 1.535 0 2.12l9.687 9.69c.28.28.663.438 1.06.438h.043c.413-.013.802-.193 1.077-.5L65.67 41.018c.552-.62.498-1.567-.12-2.12-.62-.55-1.566-.496-2.12.12z"/><path d="M92.075 50c.028-.114.047-.232.047-.355 0-3.998-4.147-6.064-7.807-7.888-2.598-1.294-5.283-2.633-5.998-4.32-.728-1.722.3-4.528 1.292-7.243 1.38-3.783 2.81-7.694.17-10.33-2.59-2.59-6.37-1.713-10.04-.862-2.56.594-5.22 1.207-6.98.46-1.73-.728-3.16-2.988-4.54-5.176-2.01-3.17-4.29-6.762-8.24-6.762-3.96 0-6.19 3.67-8.16 6.91-1.37 2.25-2.78 4.574-4.5 5.302-1.76.745-4.44.07-7.03-.58-3.69-.927-7.51-1.89-10.1.708-2.62 2.62-1.35 6.55-.12 10.354.88 2.713 1.78 5.52 1.05 7.256-.72 1.694-3.28 3.02-5.77 4.305-3.52 1.81-7.5 3.87-7.5 7.86 0 .12.02.24.05.36-.03.11-.05.23-.05.35 0 3.99 3.98 6.05 7.5 7.86 2.48 1.28 5.05 2.61 5.76 4.3.73 1.73-.18 4.54-1.05 7.25-1.23 3.8-2.5 7.73.12 10.35 2.59 2.59 6.41 1.63 10.1.71 2.59-.65 5.27-1.33 7.02-.58 1.72.72 3.13 3.05 4.5 5.3 1.97 3.23 4.2 6.91 8.15 6.91s6.23-3.6 8.235-6.77c1.385-2.19 2.82-4.45 4.54-5.18 1.77-.75 4.415-.14 6.98.46 3.655.85 7.44 1.73 10.03-.86 2.64-2.64 1.21-6.55-.176-10.33-.99-2.72-2.02-5.53-1.29-7.25.72-1.69 3.4-3.03 6-4.32 3.66-1.83 7.81-3.89 7.81-7.89 0-.13-.02-.25-.044-.36zm-9.097 5.56c-3.085 1.537-6.275 3.127-7.424 5.838-1.187 2.81.046 6.18 1.238 9.44 1.108 3.03 2.156 5.896.87 7.18-1.41 1.412-4.24.755-7.233.06-3.03-.7-6.16-1.428-8.83-.3-2.59 1.093-4.27 3.757-5.91 6.333-1.75 2.76-3.4 5.37-5.7 5.37-2.27 0-3.89-2.65-5.6-5.47-1.62-2.65-3.28-5.4-5.9-6.5-2.69-1.14-5.86-.34-8.93.44-3.01.76-5.86 1.48-7.25.08-1.32-1.32-.38-4.23.61-7.31 1.04-3.23 2.12-6.58.96-9.35-1.14-2.69-4.2-4.27-7.15-5.8-3.03-1.56-5.89-3.04-5.89-5.2 0-.12-.02-.24-.05-.36.02-.11.04-.23.04-.35 0-2.16 2.855-3.64 5.88-5.2 2.955-1.52 6.012-3.1 7.15-5.8 1.17-2.76.09-6.11-.96-9.35-.996-3.08-1.937-5.98-.61-7.31 1.39-1.39 4.232-.67 7.244.08 3.07.77 6.24 1.58 8.93.44 2.61-1.1 4.28-3.85 5.892-6.5 1.71-2.81 3.324-5.47 5.593-5.47 2.295 0 3.95 2.61 5.695 5.37 1.633 2.58 3.32 5.24 5.91 6.34 2.66 1.13 5.792.4 8.82-.3 2.993-.69 5.82-1.35 7.233.06 1.28 1.29.23 4.15-.87 7.18-1.2 3.26-2.43 6.63-1.24 9.44 1.15 2.71 4.34 4.3 7.42 5.84 3.16 1.58 6.145 3.06 6.145 5.2 0 .13.02.25.05.36-.03.12-.044.23-.044.36 0 2.15-2.983 3.63-6.143 5.21z"/></svg>