<?xml version="1.0" encoding="utf-8"?>
<!-- Generator: Adobe Illustrator 21.1.0, SVG Export Plug-In . SVG Version: 6.00 Build 0)  -->
<svg version="1.1" id="logo" xmlns="http://www.w3.org/2000/svg" xmlns:xlink="http://www.w3.org/1999/xlink" x="0px" y="0px"
	 viewBox="0 0 315 65" style="enable-background:new 0 0 315 65;" xml:space="preserve">
<style type="text/css">
	.st0{fill:#8AC900;}
</style>
<g>
	<path d="M5.4,0.5h4.9c0.4,7.1,0.1,14.3,0.2,21.4c-1.7,0-3.5,0-5.2,0C4.7,16.1,3.8,10.4,3.9,4.5C3.8,3,4.5,1.7,5.4,0.5z"/>
	<path d="M19.9,15.6c4.3-0.2,8.7-0.1,13.1-0.1c0,1.4,0,2.7,0,4.1c-1.3,0.4-3.2-0.4-4.2,0.9c-3.2,4.2-6.1,8.6-9.2,12.9
		c3.5,4.7,5.9,10.1,9.1,15c0.9,1.5,2.9,1,4.2,1.4c0,1.4,0,2.8,0,4.2c-2.9-0.4-6.9,0.8-8.7-2.2c-3.6-6-6.8-12.3-10.3-18.3
		c3.2-4.5,6.3-9.1,9.5-13.7c-1.2-0.1-2.3-0.2-3.5-0.3C19.9,18.2,19.9,16.9,19.9,15.6z"/>
	<path d="M40.4,15.5c1.8,0,3.7,0,5.5,0c0,1.8,0,3.6,0,5.4c-1.8,0-3.7,0-5.5,0C40.4,19.1,40.4,17.3,40.4,15.5z"/>
	<path d="M92.8,15.6c3.3-0.1,6.5-0.1,9.8-0.1c0,5.3,0,10.6,0,16C106,25,117.3,23,121,30c2.1,6.2,0.7,12.9,1.1,19.4
		c1.4,0,2.8,0,4.2,0.1c0,1.3,0,2.7,0,4c-3.2,0-6.4,0-9.6,0c0-5.6,0.1-11.3,0-16.9c-0.1-2-0.4-4.7-2.6-5.6c-4.6-1.8-9.7,1.5-10.9,6.1
		c-1,4-0.5,8.3-0.6,12.4c1.4,0,2.9,0,4.3,0c0,1.3,0,2.7,0,4c-4.6,0-9.2,0-13.8,0c0-1.3,0-2.7,0-4c1.4,0,2.9,0,4.3,0
		c0-9.9,0-19.8,0-29.7c-1.5,0-3.1-0.1-4.6-0.2C92.8,18.2,92.8,16.9,92.8,15.6z"/>
	<path d="M53.5,18.8c1.7,0,3.3,0,5,0c0.1,2.5,0.1,5,0.1,7.5c2,0,4-0.1,6,0.1c0.9,1.1,0.3,2.7,0.6,4c-2.2,0-4.4,0-6.6,0.1
		c0.2,5.1-0.5,10.4,0.4,15.4c0.8,2.9,4,3.4,6.6,3.6c0,1.5,0,2.9,0,4.3c-4.4,0.2-9.9-0.9-11.5-5.6c-1.5-5.8-0.4-11.9-0.8-17.8
		c-1.5,0-3,0-4.5,0c0-1.4,0-2.8,0-4.2c1.5,0,3.1,0,4.6,0C53.4,23.8,53.5,21.3,53.5,18.8z"/>
	<path d="M0.5,23.1c3.4,0,6.7,0,10.1,0c-0.2,14.1,0,28.3-0.1,42.4H9.8c-2.2-2-4-4.5-5-7.4c-3.2-8.6-3.7-17.9-4.3-27V23.1z"/>
	<path d="M70.3,29.2c5-4.4,13.1-4.8,18.6-1.1c2.3,1.6,1.8,4.7,2,7.1c-1.5,0-3,0-4.5,0c0.3-5.1-6.1-5.8-9.7-4.3
		c-7.4,2.7-7.5,14.8-0.3,17.8c4.4,2.1,9.3,0.2,13-2.5c0.7,1.3,1.3,2.5,2,3.7c-5.5,4.9-14.5,5.8-20.5,1.1C64.2,46,64,34.7,70.3,29.2z
		"/>
	<g>
		<path d="M133.3,28.3c5-3.7,13-3.8,17.2,1.2c2.6,3,2.9,7.1,2.9,10.9c-6.7,0.1-13.5,0-20.2,0.1c0.6,3.3,2,6.8,5.3,8.2
			c4.1,2.1,8.9,0.4,12.5-2c0.7,1.3,1.4,2.6,2.2,3.9c-5.4,3.9-13.2,5.1-19,1.3C126.3,46.8,125.9,33.8,133.3,28.3z M133.5,37
			c4.9,0,9.7,0,14.6,0c-0.5-2.9-1.8-6.3-5-6.9C138.5,28.9,134.3,32.6,133.5,37z"/>
	</g>
	<path d="M165.8,31.5c3.4-6.1,13.7-8.5,18-2.2c2.7,6.3,0.9,13.5,1.4,20.2c1.4,0,2.9,0,4.3,0c0,1.4,0,2.7,0,4.1c-3.2,0-6.4,0-9.6-0.1
		c0.1-5.6,0.1-11.2,0-16.8c-0.1-2.1-0.4-4.9-2.7-5.7c-3.8-1.4-8.2,0.8-9.9,4.4c-2.2,4.4-1.1,9.4-1.4,14.1c1.4,0.1,2.9,0.1,4.3,0.2
		c0,1.3,0,2.6,0,3.9c-4.6,0.1-9.2,0.1-13.8,0.1c0-1.4,0-2.7,0-4c1.4,0,2.8,0,4.2,0c0-6.3,0.1-12.6-0.1-19c-1.5,0-2.9-0.1-4.4-0.1
		c0-1.4,0-2.7,0-4.1c2.7,0.1,5.6-0.3,8.3,0.4C166.1,27.5,165.4,29.9,165.8,31.5z"/>
	<path d="M35.9,26.3c3.3,0,6.5,0,9.8,0c0,7.7,0,15.4,0,23.1c1.4,0,2.8,0,4.3,0.1c0,1.4,0,2.7,0,4c-4.6,0-9.2,0-13.8,0
		c0-1.3,0-2.7,0-4c1.4,0,2.8,0,4.3,0c0-6.3,0-12.7,0-19.1c-1.5,0-3,0-4.5,0C36,29,35.9,27.6,35.9,26.3z"/>
</g>
<g>
	<path class="st0" d="M189.6,15.5c10.9,0,21.7-0.1,32.6,0c0,3.5,0,6.9,0,10.4c-1.6,0-3.2-0.1-4.8-0.1c0-1.9,0-3.9,0.1-5.8
		c-3,0-5.9,0-8.9,0c0,9.7,0.1,19.4-0.1,29.1c1.6,0.1,3.2,0.1,4.8,0.3c0.1,1.4,0.1,2.7,0.2,4.1c-5,0-10.1,0-15.1,0c0-1.4,0-2.8,0-4.2
		c1.6,0,3.2,0,4.8,0c0-9.8,0.1-19.5-0.1-29.3c-2.9,0-5.9,0-8.8,0c0,2-0.1,4-0.1,5.9c-1.5,0-3.1-0.1-4.6-0.1
		C189.6,22.4,189.6,19,189.6,15.5z"/>
	<path class="st0" d="M228.4,15.5c1.8,0,3.7,0,5.5,0c0,1.8,0,3.6,0,5.4c-1.8,0-3.7,0-5.5,0C228.4,19.1,228.4,17.3,228.4,15.5z"/>
	<path class="st0" d="M249.8,31.6c2.6-4.2,7.6-7.2,12.6-5.6c2.7,0.6,3.8,3.2,5,5.3c2.3-2.8,5.1-5.6,9-5.7c3.9-0.5,8.2,1.7,9,5.8
		c1.1,5.9,0.4,11.9,0.5,17.9c1.5,0.1,2.9,0.1,4.4,0.2c0,1.3,0,2.7,0,4c-3.2,0-6.4,0-9.6,0c0-5.3,0-10.6,0-16c-0.1-2.2,0-4.8-1.9-6.3
		c-3-1.9-7.2-0.3-8.8,2.7c-2.9,4.6-1.7,10.3-1.9,15.5c1.4,0,2.8,0,4.2,0c0,1.3,0,2.7,0,4c-3.2,0-6.4,0-9.6,0c0-5.7,0.1-11.3,0-17
		c0-2-0.3-4.7-2.5-5.6c-3.1-1.3-6.6,0.4-8.3,3.2c-2.9,4.6-1.8,10.3-2,15.4c1.4,0,2.8,0,4.3,0c0,1.3,0,2.7,0,4c-4.6,0-9.2,0-13.8,0
		c0-1.3,0-2.7,0-4.1c1.4,0,2.8,0,4.2,0c0-6.3,0.1-12.6,0-19c-1.5,0-3-0.1-4.4-0.1c0-1.4,0-2.7,0-4.1c2.7,0.1,5.4-0.3,8.1,0.4
		C250.3,27.4,249.6,29.9,249.8,31.6z"/>
	<g>
		<path class="st0" d="M292.9,30.9c3.8-5.4,12-7,17.6-3.4c3.1,2,4.5,5.6,5,9.2v4.1c-6.7-0.6-13.5-0.2-20.3-0.3
			c0.8,2.9,1.7,6.3,4.7,7.8c4.1,2.6,9.2,1,13-1.4c0.9,1,1.7,2,2.5,3v0.5c-5.4,4.1-13.4,5.4-19.3,1.5
			C289.5,47.4,288.3,37.3,292.9,30.9z M295.6,37c4.9,0.1,9.8,0.1,14.7,0c-0.5-3.2-2.3-6.9-5.9-7.1C300,29.3,296.5,33,295.6,37z"/>
	</g>
	<path class="st0" d="M223.9,30.3c0.1-1.4,0.2-2.7,0.3-4c3.2,0,6.4,0,9.6,0c0,7.7,0,15.4,0,23.1c1.4,0.1,2.9,0.1,4.4,0.2
		c0,1.3,0,2.6,0.1,3.9c-4.6,0.2-9.3,0.1-13.9,0.1c0-1.4,0-2.7,0-4.1c1.4,0,2.8,0,4.3,0c0-6.3,0-12.7,0-19
		C226.9,30.4,225.4,30.3,223.9,30.3z"/>
</g>
</svg>
