<?xml version="1.0" encoding="iso-8859-1"?>
<!-- Generator: Adobe Illustrator 19.0.0, SVG Export Plug-In . SVG Version: 6.00 Build 0)  -->
<svg xmlns="http://www.w3.org/2000/svg" xmlns:xlink="http://www.w3.org/1999/xlink" version="1.1" id="Capa_1" x="0px" y="0px" viewBox="0 0 512 512" style="enable-background:new 0 0 512 512;" xml:space="preserve" width="512px" height="512px">
<g>
	<g>
		<g>
			<path d="M256,0C150.125,0,64,86.135,64,192c0,141.646,177.146,310,184.688,317.104C250.75,511.031,253.375,512,256,512     s5.25-0.969,7.313-2.896C270.854,502,448,333.646,448,192C448,86.135,361.875,0,256,0z M256,486.406     C222.479,452.938,85.333,308.833,85.333,192c0-94.104,76.563-170.667,170.667-170.667S426.667,97.896,426.667,192     C426.667,308.833,289.521,452.938,256,486.406z" fill="#FFFFFF"/>
			<path d="M256,85.333c-58.813,0-106.667,47.854-106.667,106.667S197.188,298.667,256,298.667S362.667,250.813,362.667,192     S314.813,85.333,256,85.333z M256,277.333c-47.063,0-85.333-38.281-85.333-85.333s38.271-85.333,85.333-85.333     s85.333,38.281,85.333,85.333S303.063,277.333,256,277.333z" fill="#FFFFFF"/>
		</g>
	</g>
</g>
<g>
</g>
<g>
</g>
<g>
</g>
<g>
</g>
<g>
</g>
<g>
</g>
<g>
</g>
<g>
</g>
<g>
</g>
<g>
</g>
<g>
</g>
<g>
</g>
<g>
</g>
<g>
</g>
<g>
</g>
</svg>
