<svg xmlns="http://www.w3.org/2000/svg" viewBox="0 0 91.28 34.54"><defs><style>.cls-1{fill:#999;}</style></defs><title>qiwi</title><g id="Слой_2" data-name="Слой 2"><g id="svg2"><g id="g10720"><path id="path10722" class="cls-1" d="M57.11,28.37A3,3,0,0,1,55.56,27a4,4,0,0,1,.1-3,2.92,2.92,0,0,1,3.62-1.1,2.54,2.54,0,0,1,1.61,2.39,3,3,0,0,1-1.24,2.8,3.62,3.62,0,0,1-2.54.28Zm2-1.28a2,2,0,0,0,.44-1.47c0-1-.53-1.83-1.37-1.83a1.38,1.38,0,0,0-1.35,1.29,2.22,2.22,0,0,0,.63,2.16,1.27,1.27,0,0,0,1.66-.16Zm11,.33A3.76,3.76,0,0,1,70,24a2.5,2.5,0,0,1,2.26-1.25,2.32,2.32,0,0,1,2.48,2.49l0,.79h-2c-1.67,0-1.1,0-1.87,0,.33,2.11,3.18,1.1,3.18,1.16s.25.85.3,1.05c-.79.41-3.32,1-4.38-.78ZM73.56,25a1.13,1.13,0,0,0-1.27-1.18A1.18,1.18,0,0,0,71.09,25c.77,0,1.65.06,2.46,0Zm1,2.46a4,4,0,0,0,.58-.35c.52-.52.52-.53.52-2.41V22.77h4.26V28.4H78.51V26.18c0-2.33,0-2.26-.77-2.26s-.72,0-.8,1.53c-.1,2.05-.68,2.61-1.78,3a9.71,9.71,0,0,1-.64-1.06Zm6.44,0a3.76,3.76,0,0,1,0-3.46,2.5,2.5,0,0,1,2.26-1.25,2.32,2.32,0,0,1,2.48,2.49l0,.79h-2c-1.67,0-1.1,0-1.86,0,.33,2.11,3.18,1.1,3.18,1.16s.25.85.3,1.05c-.79.41-3.32,1-4.38-.78ZM84.44,25a1.13,1.13,0,0,0-1.27-1.18A1.18,1.18,0,0,0,82,25c.77,0,1.65.06,2.46,0Zm-34,3.38V22.77h1.51v2.4l1.85-2.4h1.73s-1.23,1.47-2.1,2.47a3.7,3.7,0,0,1,1.71,2.27l.35.89H54a3.25,3.25,0,0,0-2.1-2.5c0,.71,0,2.44,0,2.44Zm11-5.57H63v4.36h1.46V22.77h1.4v4.36h1.7c0-.91,0-4.36,0-4.36H69V28.4h-7.5Zm24.73,5.57V22.77H87.7v2.4l1.85-2.4h1.73s-1.23,1.47-2.1,2.47a3.7,3.7,0,0,1,1.71,2.27l.35.89H89.8a3.25,3.25,0,0,0-2.1-2.5c0,.71,0,2.44,0,2.44Z"/><path id="path10724" class="cls-1" d="M77.08,20.64C77,20.49,77,17.28,77,13.51l0-6.85,1.41,0,1.41,0,0,7.13,0,7.13-1.3,0c-1.07,0-1.32,0-1.41-.22Zm-16.45,0c-.19-.37-3.95-13.52-3.95-13.82s.35-.21,1.39-.17l1.39,0s2.41,8.63,2.45,8.59,2.87-8.59,2.87-8.59l.62-.05L66,6.56s3,8.82,3.07,8.59,2.33-8.48,2.33-8.48h1.11c1,0,1.1,0,1.06.34s-.9,3.39-1.95,7.12l-1.9,6.78H68.14l-3-7.93L62.3,20.9h-.75c-.54,0-.8-.08-.91-.3ZM50.55,13.74V6.58h2.73V20.9H50.55ZM41.92,19a5,5,0,0,0,1.69-2.46,16.83,16.83,0,0,0-.11-5.88c-.85-2.21-2.55-3.21-4.25-2.5a4.66,4.66,0,0,0-2.1,2.52,13.41,13.41,0,0,0,0,6A4.83,4.83,0,0,0,39.2,19.3,3.19,3.19,0,0,0,41.92,19Zm2.58,6.26a16.76,16.76,0,0,1-1.95-.78,8.82,8.82,0,0,1-2.84-2.66,1.39,1.39,0,0,0-1-.79c-3.28-.88-5.12-4-4.81-8.07a7.09,7.09,0,0,1,2.24-5.19c1.28-1.18,2.09-1.46,4.18-1.47a4.63,4.63,0,0,1,2.75.47c2.36,1.16,3.73,3.68,3.73,6.86s-1.31,5.7-3.5,6.84c-1.05.55-1.08.73-.27,1.77a6.84,6.84,0,0,0,3.28,2.07c1.1.33,1.18.39,1.13.81s-.12.45-.9.49a6.31,6.31,0,0,1-2-.35Z"/><path id="path10726" class="cls-1" d="M26.27,24.61c-.4-.46-.6-1.2-.39-1.41s.79.5.79,1.13C26.67,24.77,26.51,24.89,26.27,24.61Zm-3.48,1.15a1.06,1.06,0,0,1-.11-1.35.91.91,0,0,1,1.23.11,1.22,1.22,0,0,1,.15,1.4A1.06,1.06,0,0,1,22.79,25.75ZM32.41,34a14.36,14.36,0,0,0-2.83-2.78,15.87,15.87,0,0,0-4.11-1.82,9.81,9.81,0,0,0-3-.33,8.91,8.91,0,0,0-3.12.33A17.23,17.23,0,0,1,4.35,26a13.94,13.94,0,0,1-3.7-5.85,15.11,15.11,0,0,1,1-11.26A16.33,16.33,0,0,1,16.82,0a14.31,14.31,0,0,1,13.56,10.9,19.22,19.22,0,0,1,.23,5.54,16.2,16.2,0,0,1-2.49,6.42c-.61.91-.83,1.07-.83.6a6,6,0,0,0-1.59-2.64,6,6,0,0,0-2.53-1.44,1.4,1.4,0,0,1-.49-.12c-.17-.08,0-.1.68-.07a4.18,4.18,0,0,1,1.69.39,2.57,2.57,0,0,0,.83.28,6,6,0,0,0,.26-1,14.5,14.5,0,0,0-.26-5.52A14.34,14.34,0,0,0,16,3.4a11.55,11.55,0,0,0-4.7-.06C7.85,4.26,5.4,7,4.58,11a16.05,16.05,0,0,0,0,4.76,14.17,14.17,0,0,0,1.25,3.63A12.79,12.79,0,0,0,15.18,26c1.51.26,1.69.25,1.59-.09a8.54,8.54,0,0,1-.15-1.2l-.07-.92.55.74a6.13,6.13,0,0,0,2.22,2,9.8,9.8,0,0,0,3.86,1.18,15.85,15.85,0,0,1,4.29,1.1,11.88,11.88,0,0,1,5,4.57,5.48,5.48,0,0,1,.44,1c0,.32-.22.17-.53-.36Z"/></g></g></g></svg>