<svg id="star" xmlns="http://www.w3.org/2000/svg" viewBox="0 0 55.867 55.867"><path d="M11.287 54.548c-.207 0-.414-.064-.588-.19-.31-.225-.466-.604-.4-.98l3.09-18.017L.302 22.606c-.272-.266-.37-.663-.253-1.024.118-.362.43-.626.808-.68l18.09-2.63 8.09-16.393c.17-.342.517-.558.897-.558s.73.215.896.557l8.09 16.393 18.09 2.63c.38.052.69.315.81.68.118.36.02.76-.252 1.022l-13.09 12.76 3.09 18.018c.063.376-.09.755-.398.98-.31.225-.718.254-1.055.075l-16.18-8.506-16.182 8.503c-.146.076-.306.114-.465.114zM3.15 22.584l12.015 11.713c.235.23.343.56.287.885L12.615 51.72l14.854-7.808c.29-.154.634-.154.93 0l14.85 7.808-2.837-16.538c-.056-.324.052-.655.287-.885l12.02-11.713-16.607-2.414c-.326-.046-.607-.25-.753-.546L27.935 4.578l-7.427 15.047c-.146.295-.427.5-.753.547L3.15 22.584z"/></svg>