<?xml version="1.0" encoding="iso-8859-1"?>
<!-- Generator: Adobe Illustrator 19.0.0, SVG Export Plug-In . SVG Version: 6.00 Build 0)  -->
<svg xmlns="http://www.w3.org/2000/svg" xmlns:xlink="http://www.w3.org/1999/xlink" version="1.1" id="Layer_1" x="0px" y="0px" viewBox="0 0 512 512" style="enable-background:new 0 0 512 512;" xml:space="preserve" width="512px" height="512px">
<g>
	<g>
		<g>
			<path d="M490.667,193.965v-87.298C490.667,83.135,471.531,64,448,64H42.667C19.135,64,0,83.135,0,106.667v298.667     C0,428.865,19.135,448,42.667,448H448c23.531,0,42.667-19.135,42.667-42.667v-87.298C503.056,313.617,512,301.888,512,288v-64     C512,210.112,503.056,198.383,490.667,193.965z M469.333,405.333c0,11.76-9.573,21.333-21.333,21.333H42.667     c-11.76,0-21.333-9.573-21.333-21.333V106.667c0-11.76,9.573-21.333,21.333-21.333H448c11.76,0,21.333,9.573,21.333,21.333V192     h-64c-35.292,0-64,28.708-64,64s28.708,64,64,64h64V405.333z M490.667,288c0,5.885-4.781,10.667-10.667,10.667h-74.667     c-23.531,0-42.667-19.135-42.667-42.667s19.135-42.667,42.667-42.667H480c5.885,0,10.667,4.781,10.667,10.667V288z" fill="#FFFFFF"/>
			<path d="M405.333,234.667C393.573,234.667,384,244.24,384,256s9.573,21.333,21.333,21.333c11.76,0,21.333-9.573,21.333-21.333     S417.094,234.667,405.333,234.667z" fill="#FFFFFF"/>
		</g>
	</g>
</g>
<g>
</g>
<g>
</g>
<g>
</g>
<g>
</g>
<g>
</g>
<g>
</g>
<g>
</g>
<g>
</g>
<g>
</g>
<g>
</g>
<g>
</g>
<g>
</g>
<g>
</g>
<g>
</g>
<g>
</g>
</svg>
